
nColumns=19
nRows=95
DataType=double
version=3
OpenSimVersion=4.4-2022-10-11-798caa840
endheader
time	ground_force_calcn_r_vx	ground_force_calcn_r_vy	ground_force_calcn_r_vz	ground_force_calcn_r_px	ground_force_calcn_r_py	ground_force_calcn_r_pz	ground_force_calcn_r_mx	ground_force_calcn_r_my	ground_force_calcn_r_mz	ground_force_calcn_l_vx	ground_force_calcn_l_vy	ground_force_calcn_l_vz	ground_force_calcn_l_px	ground_force_calcn_l_py	ground_force_calcn_l_pz	ground_force_calcn_l_mx	ground_force_calcn_l_my	ground_force_calcn_l_mz
0	-3.90939	48.3116	4.81681	0.14976	0	-0.179733	-0.0238739	0.295029	0.0294153	0	0	0	0	0	0	0	0	0
0.01	-8.72368	75.15519999999999	5.33359	0.158735	0	-0.178773	-0.036472	0.314209	0.0222987	0	0	0	0	0	0	0	0	0
0.02	-14.9792	107.876	5.75988	0.165921	0	-0.177924	-0.0492406	0.354616	0.0189342	0	0	0	0	0	0	0	0	0
0.03	-22.8167	146.506	6.02275	0.171375	0	-0.177224	-0.0641936	0.412185	0.0169447	0	0	0	0	0	0	0	0	0
0.04	-32.316	190.651	6.02899	0.175927	0	-0.176604	-0.08225209999999999	0.485254	0.0153452	0	0	0	0	0	0	0	0	0
0.05	-43.4337	239.475	5.66627	0.179995	0	-0.176016	-0.103899	0.572855	0.0135545	0	0	0	0	0	0	0	0	0
0.06	-55.9065	291.846	4.81513	0.183784	0	-0.175431	-0.129083	0.6738420000000001	0.0111177	0	0	0	0	0	0	0	0	0
0.07000000000000001	-69.24930000000001	346.438	3.36418	0.187379	0	-0.174824	-0.157088	0.785876	0.00763147	0	0	0	0	0	0	0	0	0
0.08	-82.84439999999999	401.713	1.23704	0.19081	0	-0.174187	-0.186688	0.905251	0.00278764	0	0	0	0	0	0	0	0	0
0.09	-96.0322	455.985	-1.57292	0.194079	0	-0.17352	-0.216652	1.02872	-0.00354857	0	0	0	0	0	0	0	0	0
0.1	-108.171	507.605	-4.9822	0.197172	0	-0.172834	-0.246167	1.15516	-0.011338	0	0	0	0	0	0	0	0	0
0.11	-118.687	555.134	-8.83306	0.200071	0	-0.172143	-0.274514	1.28398	-0.0204301	0	0	0	0	0	0	0	0	0
0.12	-127.132	597.439	-12.9387	0.202765	0	-0.171454	-0.300483	1.41208	-0.0305813	0	0	0	0	0	0	0	0	0
0.13	-133.219	633.691	-17.0978	0.205244	0	-0.170773	-0.32264	1.53472	-0.0414086	0	0	0	0	0	0	0	0	0
0.14	-136.819	663.304	-21.0972	0.207512	0	-0.170104	-0.339803	1.64738	-0.052397	0	0	0	0	0	0	0	0	0
0.15	-137.936	685.905	-24.7491	0.209578	0	-0.169447	-0.350863	1.74471	-0.06295340000000001	0	0	0	0	0	0	0	0	0
0.16	-136.688	701.328	-27.9158	0.211463	0	-0.1688	-0.354865	1.82077	-0.07247430000000001	0	0	0	0	0	0	0	0	0
0.17	-133.281	709.629	-30.5131	0.213197	0	-0.16815	-0.351263	1.87024	-0.08041760000000001	0	0	0	0	0	0	0	0	0
0.18	-128	711.092	-32.5077	0.214816	0	-0.167487	-0.340032	1.88901	-0.0863564	0	0	0	0	0	0	0	0	0
0.19	-121.192	706.23	-33.9028	0.216365	0	-0.166798	-0.321732	1.87486	-0.0900031	0	0	0	0	0	0	0	0	0
0.2	-113.232	695.768	-34.7226	0.217891	0	-0.166068	-0.2974	1.82741	-0.0911979	0	0	0	0	0	0	0	0	0
0.21	-104.498	680.599	-35.004	0.219441	0	-0.16529	-0.268343	1.74772	-0.0898873	0	0	0	0	0	0	0	0	0
0.22	-95.34059999999999	661.729	-34.7934	0.221059	0	-0.164452	-0.235928	1.6375	-0.08609899999999999	0	0	0	0	0	0	0	0	0
0.23	-86.0611	640.216	-34.1469	0.222784	0	-0.163549	-0.201427	1.49844	-0.0799214	0	0	0	0	0	0	0	0	0
0.24	-76.9093	617.095	-33.1325	0.224644	0	-0.162573	-0.165975	1.33173	-0.071502	0	0	0	0	0	0	0	0	0
0.25	-68.08150000000001	593.328	-31.8277	0.226667	0	-0.161523	-0.130579	1.13799	-0.0610451	0	0	0	0	0	0	0	0	0
0.26	-59.7242	569.759	-30.3155	0.228872	0	-0.160393	-0.0961714	0.9174600000000001	-0.0488158	0	0	0	0	0	0	0	0	0
0.27	-51.9392	547.112	-28.6807	0.231274	0	-0.159186	-0.063638	0.670343	-0.0351407	0	0	0	0	0	0	0	0	0
0.28	-44.786	525.984	-27.0071	0.233881	0	-0.157906	-0.0338213	0.39721	-0.0203951	0	0	0	0	0	0	0	0	0
0.29	-38.2832	506.861	-25.3762	0.236699	0	-0.156563	-0.00749178	0.0991895	-0.00496597	0	0	0	0	0	0	0	0	0
0.3	-32.4122	490.13	-23.864	0.239721	0	-0.155171	0.0146672	-0.221794	0.010799	0	0	0	0	0	0	0	0	0
0.31	-27.1234	476.084	-22.5387	0.242934	0	-0.153754	0.0320751	-0.562998	0.0266534	0	0	0	0	0	0	0	0	0
0.32	-22.3432	464.933	-21.4604	0.246314	0	-0.152336	0.0442527	-0.920844	0.0425044	0	0	0	0	0	0	0	0	0
0.33	-17.9826	456.81	-20.6805	0.249835	0	-0.150945	0.0508204	-1.29099	0.0584449	0	0	0	0	0	0	0	0	0
0.34	-13.944	451.779	-20.2408	0.25347	0	-0.149612	0.0514939	-1.66837	0.0747471	0	0	0	0	0	0	0	0	0
0.35	-10.1261	449.845	-20.1698	0.257192	0	-0.148363	0.0460859	-2.04733	0.091797	0	0	0	0	0	0	0	0	0
0.36	-6.42737	450.969	-20.4785	0.260972	0	-0.147223	0.0345148	-2.42169	0.109969	0	0	0	0	0	0	0	0	0
0.37	-2.74971	455.078	-21.1565	0.264786	0	-0.146216	0.0168284	-2.7851	0.129479	0	0	0	0	0	0	0	0	0
0.38	0.998309	462.061	-22.1733	0.268613	0	-0.145359	-0.00676548	-3.13136	0.150267	0	0	0	0	0	0	0	0	0
0.39	4.89863	471.773	-23.482	0.272428	0	-0.144664	-0.0358705	-3.45458	0.171948	0	0	0	0	0	0	0	0	0
0.4	9.020490000000001	484.022	-25.0226	0.276214	0	-0.144136	-0.0698734	-3.74927	0.193827	0	0	0	0	0	0	0	0	0
0.41	13.4161	498.553	-26.7263	0.279958	0	-0.143775	-0.107915	-4.0102	0.214977	0	0	0	0	0	0	0	0	0
0.42	18.1168	515.037	-28.5188	0.283648	0	-0.143573	-0.14888	-4.23244	0.234361	0	0	0	0	0	0	0	0	0
0.43	23.1312	533.059	-30.3224	0.287277	0	-0.143519	-0.191435	-4.4116	0.250948	0	0	0	0	0	0	0	0	0
0.44	28.4449	552.112	-32.0552	0.290844	0	-0.143597	-0.234114	-4.54412	0.263828	0	0	0	0	0	0	0	0	0
0.45	34.022	571.603	-33.6326	0.294349	0	-0.14379	-0.275431	-4.62751	0.272279	0	0	0	0	0	0	0	0	0
0.46	39.8098	590.851	-34.9718	0.297799	0	-0.144081	-0.313997	-4.6603	0.275838	0	0	0	0	0	0	0	0	0
0.47	45.7459	609.1079999999999	-35.997	0.301196	0	-0.144451	-0.348636	-4.6421	0.274338	0	0	0	0	0	0	0	0	0
0.48	51.7625	625.576	-36.6429	0.304548	0	-0.144886	-0.378471	-4.57401	0.267921	0	0	0	0	0	0	0	0	0
0.49	57.7872	639.444	-36.8543	0.307859	0	-0.14537	-0.402998	-4.45937	0.257015	0	0	0	0	0	0	0	0	0
0.5	63.7408	649.92	-36.5858	0.311132	0	-0.145892	-0.422131	-4.30418	0.242294	0	0	0	0	0	0	0	0	0
0.51	69.5326	656.259	-35.8064	0.314366	0	-0.146446	-0.43618	-4.11673	0.224614	0	0	0	0	0	0	0	0	0
0.52	75.0553	657.783	-34.5054	0.317558	0	-0.147024	-0.445734	-3.9064	0.204919	-0.512513	35.7146	-3.10418	0.757729	0	-0.211952	-0.00565889	0.394342	-0.0342746
0.53	80.1793	653.909	-32.6986	0.320704	0	-0.147622	-0.45152	-3.6824	0.184138	-3.65421	59.429	-3.04434	0.785717	0	-0.224647	-0.0263338	0.428271	-0.0219389
0.54	84.74890000000001	644.177	-30.4315	0.323801	0	-0.148237	-0.454227	-3.45258	0.163103	-8.005549999999999	88.52589999999999	-2.90564	0.801206	0	-0.23091	-0.0396297	0.438228	-0.0143837
0.55	88.5805	628.276	-27.7764	0.326849	0	-0.148862	-0.454364	-3.22267	0.142476	-13.7532	123.107	-2.66498	0.8114170000000001	0	-0.234542	-0.0487092	0.436005	-0.009438469999999999
0.5600000000000001	91.4674	606.071	-24.8266	0.329855	0	-0.149494	-0.452173	-2.99614	0.122731	-21.0545	162.914	-2.29554	0.818985	0	-0.236872	-0.0549086	0.424868	-0.00598661
0.57	93.193	577.644	-21.6904	0.332828	0	-0.150125	-0.447601	-2.77439	0.104178	-29.9474	207.32	-1.75976	0.825102	0	-0.238483	-0.0586375	0.405936	-0.00344563
0.58	93.55070000000001	543.3200000000001	-18.4845	0.33579	0	-0.150749	-0.440297	-2.55714	0.0869973	-40.2254	255.474	-1.00177	0.830354	0	-0.239674	-0.0598031	0.379813	-0.00148933
0.59	92.3682	503.688	-15.3269	0.338764	0	-0.15136	-0.429636	-2.34282	0.0712906	-51.4785	306.326	0.0532874	0.835043	0	-0.240617	-0.0582492	0.346615	6.0296e-05
0.6	89.53489999999999	459.609	-12.3318	0.341781	0	-0.151951	-0.414772	-2.12915	0.0571275	-63.1939	358.546	1.4828	0.839331	0	-0.24141	-0.0539595	0.306152	0.00126612
0.61	85.0309	412.19	-9.603059999999999	0.344879	0	-0.152515	-0.39486	-1.9141	0.044594	-74.8147	410.546	3.33589	0.84331	0	-0.242111	-0.0468921	0.257321	0.00209086
0.62	78.95740000000001	362.734	-7.22325	0.348104	0	-0.153043	-0.369452	-1.69728	0.0337985	-85.792	460.67	5.60183	0.8470299999999999	0	-0.242754	-0.0366781	0.196947	0.00239491
0.63	71.5492	312.664	-5.2412	0.351512	0	-0.153531	-0.338779	-1.48044	0.0248166	-95.6337	507.434	8.19722	0.8505200000000001	0	-0.243352	-0.0227516	0.120721	0.00195015
0.64	63.1586	263.425	-3.66403	0.355181	0	-0.153975	-0.303792	-1.26707	0.0176239	-103.949	549.678	10.9938	0.853795	0	-0.243915	-0.00506482	0.0267825	0.000535663
0.65	54.2125	216.381	-2.45972	0.359228	0	-0.154371	-0.265996	-1.06168	0.0120687	-110.478	586.616	13.8529	0.856869	0	-0.244449	0.0155373	-0.0824998	-0.00194822
0.66	45.157	172.71	-1.56804	0.363843	0	-0.154719	-0.227177	-0.868872	0.007888549999999999	-115.071	617.773	16.6285	0.859751	0	-0.244959	0.0377011	-0.202403	-0.00544806
0.67	36.4069	133.316	-0.915887	0.369366	0	-0.155017	-0.1891	-0.692454	0.0047572	-117.665	642.89	19.1793	0.862448	0	-0.245449	0.0598467	-0.326988	-0.009755
0.68	28.3043	98.7859	-0.432236	0.376413	0	-0.155258	-0.153329	-0.535141	0.0023415	-118.271	661.855	21.3991	0.864971	0	-0.245924	0.08019519999999999	-0.448778	-0.0145099
0.6899999999999999	21.0912	69.38160000000001	-0.060563	0.386246	0	-0.155425	-0.121283	-0.398971	0.000348261	-116.981	674.668	23.2255	0.867331	0	-0.246393	0.09714589999999999	-0.560271	-0.0192874
0.7	14.8983	45.0797	0.233016	0.40185	0	-0.155478	-0.0945761	-0.286171	-0.00147922	-113.955	681.436	24.6327	0.869548	0	-0.246861	0.109561	-0.655157	-0.0236828
0.71	9.753299999999999	25.6297	0.461856	0.432368	0	-0.155358	-0.07638	-0.200712	-0.00361688	-109.412	682.402	25.6237	0.8716469999999999	0	-0.247337	0.116813	-0.72856	-0.0273569
0.72	0	0	0	0	0	0	0	0	0	-103.613	677.971	26.2174	0.873655	0	-0.247824	0.118776	-0.777182	-0.0300539
0.73	0	0	0	0	0	0	0	0	0	-96.839	668.715	26.4397	0.875602	0	-0.248326	0.115726	-0.799142	-0.0315965
0.74	0	0	0	0	0	0	0	0	0	-89.3682	655.362	26.3208	0.877519	0	-0.248841	0.10823	-0.793679	-0.0318759
0.75	0	0	0	0	0	0	0	0	0	-81.4628	638.756	25.8937	0.879431	0	-0.249368	0.097001	-0.760592	-0.0308326
0.76	0	0	0	0	0	0	0	0	0	-73.3556	619.8099999999999	25.1947	0.881366	0	-0.249902	0.0828248	-0.699819	-0.028447
0.77	0	0	0	0	0	0	0	0	0	-65.2441	599.45	24.2642	0.883342	0	-0.250438	0.0665138	-0.611116	-0.0247364
0.78	0	0	0	0	0	0	0	0	0	-57.2893	578.567	23.1487	0.885377	0	-0.250972	0.0489321	-0.494167	-0.0197718
0.79	0	0	0	0	0	0	0	0	0	-49.6171	557.972	21.9018	0.887486	0	-0.2515	0.0310441	-0.349109	-0.0137034
0.8	0	0	0	0	0	0	0	0	0	-42.3208	538.3819999999999	20.5845	0.889683	0	-0.252017	0.013913	-0.176994	-0.00676718
0.8100000000000001	0	0	0	0	0	0	0	0	0	-35.4632	520.403	19.2629	0.891978	0	-0.252523	-0.00135267	0.0198496	0.000734742
0.82	0	0	0	0	0	0	0	0	0	-29.0787	504.528	18.0035	0.894381	0	-0.253015	-0.0137041	0.237773	0.00848466
0.83	0	0	0	0	0	0	0	0	0	-23.175	491.142	16.8682	0.896898	0	-0.253494	-0.0222707	0.471976	0.0162099
0.84	0	0	0	0	0	0	0	0	0	-17.7375	480.525	15.909	0.899532	0	-0.253963	-0.0264612	0.716856	0.0237334
0.85	0	0	0	0	0	0	0	0	0	-12.7335	472.857	15.1654	0.902282	0	-0.254429	-0.026026	0.966476	0.0309967
0.86	0	0	0	0	0	0	0	0	0	-8.116680000000001	468.232	14.6647	0.905141	0	-0.254899	-0.0210591	1.21485	0.0380483
0.87	0	0	0	0	0	0	0	0	0	-3.83087	466.652	14.425	0.908101	0	-0.255382	-0.0119526	1.45599	0.045007
0.88	0	0	0	0	0	0	0	0	0	0.188705	468.04	14.4578	0.911147	0	-0.255885	0.00067902	1.68416	0.0520237
0.89	0	0	0	0	0	0	0	0	0	4.01393	472.242	14.7699	0.914263	0	-0.256415	0.0160978	1.89391	0.0592343
0.9	0	0	0	0	0	0	0	0	0	7.72066	479.05	15.3622	0.9174330000000001	0	-0.256974	0.0335228	2.08002	0.066702
0.91	0	0	0	0	0	0	0	0	0	11.385	488.218	16.2273	0.920638	0	-0.257558	0.0521779	2.23753	0.0743707
0.92	0	0	0	0	0	0	0	0	0	15.0811	499.481	17.3494	0.923866	0	-0.25816	0.07131410000000001	2.36189	0.0820403
0.93	0	0	0	0	0	0	0	0	0	18.879	512.5549999999999	18.7037	0.927106	0	-0.258768	0.0902046	2.44901	0.089367
0.9399999999999999	0	0	0	0	0	0	0	0	0	22.8403	527.14	20.2561	0.930347	0	-0.259369	0.108131	2.4956	0.0958967
